<?xml version="1.0" encoding="iso-8859-1"?>
<!-- Uploaded to: SVG Repo, www.svgrepo.com, Generator: SVG Repo Mixer Tools -->
<svg height="48px" width="48px" version="1.1" id="Layer_1" xmlns="http://www.w3.org/2000/svg" xmlns:xlink="http://www.w3.org/1999/xlink" 
	 viewBox="0 0 512 512" xml:space="preserve">
<path style="fill:#8BC0FF;" d="M5.565,256c0,138.311,112.124,250.435,250.435,250.435L278.261,256L256,5.565
	C117.689,5.565,5.565,117.689,5.565,256z"/>
<path style="fill:#3897FF;" d="M256,5.565v500.87c138.311,0,250.435-112.124,250.435-250.435S394.311,5.565,256,5.565z"/>
<path style="fill:#8BC0FF;" d="M511.447,239.304C503.199,111.226,400.775,8.804,272.696,0.557v1.611C267.231,0.742,261.659,0,256,0
	v33.391c9.165,0,18.672,4.112,28.258,12.22c11.603,9.816,22.802,25.136,32.386,44.302c1.945,3.889,3.813,7.907,5.604,12.048
	c-21.359,6.147-43.641,9.343-66.248,9.343v33.391c26.531,0,52.667-3.864,77.669-11.286c2.867,9.502,5.406,19.465,7.603,29.853
	c5.119,24.208,8.147,49.719,9.047,76.042H256v33.391h94.318c-0.899,26.323-3.927,51.836-9.047,76.042
	c-2.197,10.388-4.735,20.35-7.602,29.851c-25.001-7.422-51.139-11.284-77.669-11.284v33.391c22.607,0,44.888,3.198,66.247,9.345
	c-1.792,4.139-3.66,8.158-5.604,12.045c-9.584,19.168-20.783,34.487-32.386,44.302c-9.584,8.109-19.092,12.22-28.257,12.22V512
	c5.659,0,11.231-0.742,16.696-2.167v1.611c128.079-8.248,230.504-110.67,238.751-238.748H512v-33.391H511.447z M328.889,45.555
	c19.655,6.79,38.282,16.345,55.403,28.469c-9.825,6.243-20.07,11.74-30.649,16.466C346.414,73.449,338.09,58.327,328.889,45.555z
	 M365.062,121.948c16.076-7.014,31.496-15.58,46.022-25.63c0.777,0.755,1.557,1.506,2.324,2.273
	c38.086,38.085,60.671,87.541,64.588,140.712h-94.274C382.343,196.46,375.698,156.488,365.062,121.948z M353.643,421.51
	c10.578,4.727,20.826,10.221,30.651,16.464c-17.122,12.126-35.749,21.682-55.405,28.472
	C338.09,453.673,346.414,438.551,353.643,421.51z M413.408,413.408c-0.768,0.768-1.547,1.519-2.324,2.274
	c-14.526-10.051-29.946-18.617-46.022-25.631c10.636-34.54,17.281-74.512,18.66-117.356h94.274
	C474.079,325.867,451.494,375.323,413.408,413.408z"/>
<path style="fill:#BFDCFF;" d="M256,0C120.226,0,9.159,105.704,0.557,239.304H0v33.391h0.557C9.159,406.296,120.226,512,256,512
	c5.611,0,11.175-0.2,16.696-0.557v-33.448V34.005V0.557C267.175,0.2,261.611,0,256,0z M227.742,466.389
	c-11.602-9.816-22.802-25.136-32.385-44.302c-1.944-3.889-3.812-7.907-5.604-12.046c16.079-4.628,32.682-7.575,49.553-8.751v72.951
	C235.474,472.277,231.614,469.665,227.742,466.389z M183.111,466.445c-19.655-6.79-38.281-16.345-55.402-28.469
	c9.825-6.243,20.07-11.74,30.648-16.466C165.586,438.551,173.91,453.673,183.111,466.445z M178.328,378.586
	c-2.867-9.5-5.405-19.462-7.601-29.847c-5.119-24.208-8.147-49.719-9.047-76.042h77.624v95.123
	C218.515,369.09,198.068,372.726,178.328,378.586z M161.682,239.304c0.899-26.323,3.927-51.836,9.047-76.042
	c2.196-10.386,4.734-20.345,7.6-29.844c19.739,5.86,40.186,9.495,60.976,10.765v95.121H161.682z M189.749,101.966
	c1.792-4.142,3.661-8.162,5.606-12.052c9.584-19.168,20.783-34.487,32.385-44.302c3.872-3.276,7.732-5.888,11.562-7.851v72.951
	C222.434,109.536,205.83,106.594,189.749,101.966z M158.356,90.495c-10.577-4.726-20.817-10.231-30.642-16.474
	c17.12-12.123,35.744-21.678,55.397-28.466C173.909,58.328,165.585,73.451,158.356,90.495z M98.592,98.592
	c0.77-0.77,1.553-1.524,2.333-2.282c14.526,10.05,29.935,18.635,46.011,25.648c-10.634,34.537-17.278,74.505-18.658,117.346H34.005
	C37.921,186.133,60.506,136.677,98.592,98.592z M34.005,272.696h94.274c1.379,42.842,8.024,82.813,18.659,117.351
	c-16.076,7.014-31.491,15.588-46.018,25.638c-0.778-0.756-1.559-1.507-2.327-2.276C60.506,375.323,37.921,325.867,34.005,272.696z"
	/>
</svg>